<svg width="303" height="70" xmlns="http://www.w3.org/2000/svg">
 <defs>
  <linearGradient id="paint0_linear" x1="0.91013" y1="0.26377" x2="1.34397" y2="0.65899">
   <stop stop-color="#131057"/>
   <stop offset="1" stop-color="#4F48AD"/>
  </linearGradient>
  <linearGradient id="paint1_linear" x1="-1.03132" y1="-0.02232" x2="-0.42917" y2="0.78731">
   <stop stop-color="#131057"/>
   <stop offset="1" stop-color="#4F48AD"/>
  </linearGradient>
  <linearGradient id="paint2_linear" x1="0.8173" y1="0.68992" x2="0.27651" y2="0.28812">
   <stop stop-color="#EE6D93"/>
   <stop offset="1" stop-color="#F7C6B8"/>
  </linearGradient>
  <linearGradient id="paint3_linear" x1="0.44491" y1="0.98422" x2="0.32201" y2="-0.00015">
   <stop stop-color="#3CAC96"/>
   <stop offset="1" stop-color="#5FCEB8"/>
  </linearGradient>
  <linearGradient id="paint4_linear" x1="0.52175" y1="-0.18658" x2="0.02089" y2="0.65073">
   <stop stop-color="#80C3FF"/>
   <stop offset="0.45538" stop-color="#349BF7"/>
   <stop offset="1" stop-color="#714DD6"/>
  </linearGradient>
 </defs>
 <g>
  <title>background</title>
  <rect x="-1" y="-1" width="305" height="72" id="canvas_background" fill="none"/>
 </g>
 <g>
  <title>Layer 1</title>
  <path d="m124.15901,17.5519c0.299,-0.915 0.897,-1.3217 1.694,-1.3217l3.885,0c0.399,0 0.698,0.1017 0.996,0.4067c0.299,0.305 0.399,0.61 0.399,1.0167c0,0.1017 0,0.305 -0.1,0.5084l-11.5562,32.9419c-0.1992,0.61 -0.4981,1.1184 -0.6973,1.3217c-0.2989,0.305 -0.6974,0.4067 -1.1955,0.4067l-4.0846,0c-0.4982,0 -0.8967,-0.1017 -1.1955,-0.4067c-0.2989,-0.305 -0.4982,-0.7117 -0.6974,-1.3217l-11.5564,-32.9419c-0.0997,-0.2034 -0.0997,-0.4067 -0.0997,-0.5084c0,-0.4067 0.0997,-0.7117 0.3985,-1.0167c0.2989,-0.305 0.5978,-0.4067 0.9963,-0.4067l3.8853,0c0.797,0 1.3948,0.4067 1.6936,1.3217l8.6674,25.0115l8.5675,-25.0115z" fill="white" id="svg_1"/>
  <path d="m161.19401,26.96893c-0.299,0.305 -0.598,0.4066 -0.996,0.4066l-3.587,0c-0.498,0 -0.996,-0.1016 -1.295,-0.305c-0.299,-0.2033 -0.598,-0.5083 -0.797,-0.915c-0.598,-1.0168 -1.395,-1.7285 -2.491,-2.3385c-1.096,-0.61 -2.59,-0.915 -4.483,-0.915c-1.893,0 -3.387,0.4066 -4.682,1.1184c-1.295,0.8133 -1.893,1.8301 -1.893,3.0501c0,1.0168 0.299,1.8301 0.897,2.4402c0.597,0.61 1.494,1.0167 2.789,1.4234c1.295,0.4067 3.288,0.915 6.177,1.5251c4.184,0.915 7.173,2.1351 8.966,3.8635c1.893,1.6268 2.79,3.8636 2.79,6.7104c0,2.1351 -0.598,3.9652 -1.794,5.592c-1.195,1.6268 -2.889,2.9485 -5.18,3.8636c-2.192,0.915 -4.882,1.4234 -7.871,1.4234c-2.59,0 -4.981,-0.4067 -7.172,-1.2201c-2.192,-0.8134 -3.985,-2.0335 -5.38,-3.5585c-1.395,-1.5251 -2.092,-3.3552 -2.192,-5.287c0,-0.4067 0.1,-0.7117 0.399,-1.0167c0.298,-0.3051 0.597,-0.4067 0.996,-0.4067l3.586,0c0.498,0 0.997,0.1016 1.295,0.305c0.299,0.2033 0.598,0.5084 0.797,0.915c0.598,1.1184 1.395,2.0335 2.491,2.7452c1.096,0.7117 2.79,1.0167 5.18,1.0167c2.292,0 4.185,-0.4067 5.679,-1.1184c1.494,-0.7117 2.291,-1.8301 2.291,-3.2535c0,-0.8134 -0.298,-1.5251 -0.896,-2.0334c-0.598,-0.5084 -1.395,-0.9151 -2.491,-1.2201c-1.096,-0.305 -2.69,-0.7117 -4.782,-1.3218c-0.896,-0.2033 -1.992,-0.4066 -3.287,-0.8133c-3.587,-0.9151 -6.177,-2.1352 -7.771,-3.7619c-1.594,-1.5251 -2.391,-3.8636 -2.391,-6.9137c0,-2.0335 0.598,-3.8636 1.793,-5.592c1.196,-1.6268 2.79,-2.9485 4.882,-3.8636c2.092,-0.915 4.383,-1.4234 6.874,-1.4234c2.889,0 5.38,0.5084 7.472,1.5251c2.092,1.0167 3.686,2.2368 4.782,3.7619c1.096,1.5251 1.693,2.9485 1.793,4.3719c-0.1,0.61 -0.199,0.915 -0.498,1.2201z" fill="white" id="svg_4"/>
  <path d="m176.867,45.6136c1.096,1.0167 2.491,1.525 4.084,1.525c1.495,0 2.69,-0.2033 3.487,-0.7117c0.797,-0.4067 1.495,-1.22 2.092,-2.1351c0.299,-0.4067 0.499,-0.8134 0.797,-1.0167c0.299,-0.2034 0.598,-0.4067 0.897,-0.4067l3.885,0c0.399,0 0.698,0.1017 0.997,0.4067c0.299,0.305 0.398,0.61 0.398,1.0167c-0.099,1.1184 -0.598,2.4402 -1.494,3.8636c-0.897,1.4234 -2.292,2.6435 -4.184,3.6602c-1.893,1.0167 -4.185,1.5251 -6.875,1.5251c-2.39,0 -4.582,-0.5084 -6.475,-1.6268c-1.893,-1.1184 -3.387,-2.5418 -4.483,-4.3719c-1.096,-1.8301 -1.694,-3.8636 -1.893,-5.9987c0,-0.4067 -0.1,-1.1184 -0.1,-2.1351c0,-1.0167 0,-1.7284 0.1,-2.1351c0.199,-2.1352 0.797,-4.1686 1.893,-5.9987c1.096,-1.8301 2.59,-3.2535 4.483,-4.3719c1.893,-1.1184 4.085,-1.6268 6.475,-1.6268c2.69,0 4.982,0.5084 6.875,1.5251c1.892,1.0167 3.287,2.2368 4.184,3.6602c0.896,1.4234 1.395,2.7452 1.494,3.8636c0,0.4067 -0.099,0.7117 -0.398,1.0167c-0.299,0.305 -0.598,0.4067 -0.997,0.4067l-3.885,0c-0.299,0 -0.598,-0.1017 -0.897,-0.4067c-0.298,-0.2034 -0.498,-0.61 -0.797,-1.0167c-0.697,-1.0168 -1.394,-1.7285 -2.092,-2.1352c-0.797,-0.4066 -1.893,-0.7117 -3.487,-0.7117c-1.593,0 -2.889,0.5084 -4.084,1.5251c-1.196,1.0168 -1.793,2.5418 -1.993,4.5753c0,0.305 -0.099,0.915 -0.099,1.8301c0,0.915 0,1.5251 0.099,1.8301c0.1,2.0334 0.797,3.5585 1.993,4.5753z" fill="white" id="svg_5"/>
  <path d="m224.70701,52.16244c-0.299,0.305 -0.598,0.4067 -0.997,0.4067l-3.885,0c-0.399,0 -0.697,-0.1017 -0.996,-0.4067c-0.299,-0.3051 -0.399,-0.6101 -0.399,-1.0168l0,-13.2174c0,-2.1351 -0.498,-3.8635 -1.494,-5.0836c-0.996,-1.2201 -2.491,-1.8301 -4.384,-1.8301c-1.793,0 -3.188,0.61 -4.283,1.9318c-1.096,1.22 -1.594,2.9485 -1.594,4.9819l0,13.3191c0,0.4067 -0.1,0.7117 -0.399,1.0167c-0.299,0.3051 -0.598,0.4067 -0.996,0.4067l-3.886,0c-0.398,0 -0.697,-0.1016 -0.996,-0.4067c-0.299,-0.305 -0.398,-0.61 -0.398,-1.0167l0,-34.3653c0,-0.4067 0.099,-0.7117 0.398,-1.0167c0.299,-0.305 0.598,-0.4067 0.996,-0.4067l3.886,0c0.398,0 0.697,0.1017 0.996,0.4067c0.299,0.305 0.399,0.61 0.399,1.0167l0,11.184c2.092,-2.1351 4.483,-3.1519 7.372,-3.1519c3.885,0 6.675,1.1184 8.368,3.3552c1.694,2.2368 2.59,5.1853 2.59,8.8455l0,14.1325c0.1,0.305 -0.099,0.7117 -0.298,0.9151z" fill="white" id="svg_6"/>
  <path d="m257.90201,39.3099c0,0.915 0,1.8301 -0.099,2.6435c-0.199,2.1351 -0.797,4.0669 -1.893,5.7953c-1.096,1.7284 -2.59,3.1518 -4.483,4.1686c-1.893,1.0167 -4.085,1.525 -6.476,1.525c-2.391,0 -4.583,-0.5083 -6.475,-1.525c-1.893,-1.0168 -3.388,-2.4402 -4.483,-4.1686c-1.096,-1.7284 -1.694,-3.6602 -1.893,-5.7953c0,-0.4067 -0.1,-1.3218 -0.1,-2.6435c0,-1.3218 0,-2.2368 0.1,-2.6435c0.199,-2.1351 0.797,-4.1686 1.893,-5.897c1.095,-1.7285 2.59,-3.1519 4.483,-4.1686c1.892,-1.0167 4.084,-1.5251 6.475,-1.5251c2.391,0 4.583,0.5084 6.476,1.5251c1.893,1.0167 3.387,2.4401 4.483,4.1686c1.096,1.7284 1.694,3.6602 1.893,5.897c0.099,0.8134 0.099,1.7284 0.099,2.6435zm-17.135,-6.6087c-1.196,0.8133 -1.793,2.2367 -1.993,4.2702c0,0.305 -0.099,1.1184 -0.099,2.3385c0,1.22 0,2.0334 0.099,2.3384c0.2,2.0335 0.897,3.3552 1.993,4.2703c1.195,0.8134 2.491,1.2201 4.184,1.2201c1.594,0 2.989,-0.4067 4.184,-1.2201c1.196,-0.8134 1.794,-2.2368 1.993,-4.2703c0.1,-0.7117 0.1,-1.5251 0.1,-2.3384c0,-0.9151 0,-1.6268 -0.1,-2.3385c-0.199,-2.0335 -0.897,-3.3552 -1.993,-4.2702c-1.195,-0.8134 -2.49,-1.2201 -4.184,-1.2201c-1.594,-0.1017 -2.989,0.305 -4.184,1.2201z" fill="white" id="svg_7"/>
  <path d="m287.90201,39.3099c0,0.915 0,1.8301 -0.1,2.6435c-0.199,2.1351 -0.797,4.0669 -1.893,5.7953c-1.095,1.7284 -2.59,3.1518 -4.483,4.1686c-1.893,1.0167 -4.084,1.525 -6.475,1.525c-2.391,0 -4.583,-0.5083 -6.476,-1.525c-1.893,-1.0168 -3.387,-2.4402 -4.483,-4.1686c-1.096,-1.7284 -1.694,-3.6602 -1.893,-5.7953c0,-0.4067 -0.099,-1.3218 -0.099,-2.6435c0,-1.3218 0,-2.2368 0.099,-2.6435c0.199,-2.1351 0.797,-4.1686 1.893,-5.897c1.096,-1.7285 2.59,-3.1519 4.483,-4.1686c1.893,-1.0167 4.085,-1.5251 6.476,-1.5251c2.391,0 4.582,0.5084 6.475,1.5251c1.893,1.0167 3.388,2.4401 4.483,4.1686c1.096,1.7284 1.694,3.6602 1.893,5.897c0.1,0.8134 0.1,1.7284 0.1,2.6435zm-17.136,-6.6087c-1.195,0.8133 -1.793,2.2367 -1.992,4.2702c0,0.305 -0.1,1.1184 -0.1,2.3385c0,1.22 0,2.0334 0.1,2.3384c0.199,2.0335 0.897,3.3552 1.992,4.2703c1.096,0.8134 2.491,1.2201 4.185,1.2201c1.594,0 2.988,-0.4067 4.184,-1.2201c1.096,-0.8134 1.793,-2.2368 1.992,-4.2703c0.1,-0.7117 0.1,-1.5251 0.1,-2.3384c0,-0.9151 0,-1.6268 -0.1,-2.3385c-0.199,-2.0335 -0.896,-3.3552 -1.992,-4.2702c-1.196,-0.8134 -2.491,-1.2201 -4.184,-1.2201c-1.694,-0.1017 -3.089,0.305 -4.185,1.2201z" fill="white" id="svg_8"/>
  <path d="m300.277,52.4256c-0.299,0.305 -0.598,0.4067 -0.997,0.4067l-3.885,0c-0.399,0 -0.697,-0.1017 -0.996,-0.4067c-0.299,-0.305 -0.399,-0.6101 -0.399,-1.0168l0,-34.2636c0,-0.4067 0.1,-0.7117 0.399,-1.0167c0.299,-0.305 0.597,-0.4067 0.996,-0.4067l3.885,0c0.399,0 0.698,0.1017 0.997,0.4067c0.298,0.305 0.398,0.61 0.398,1.0167l0,34.3653c0,0.305 -0.1,0.7117 -0.398,0.9151z" fill="white" id="svg_9"/>
  <path d="m18.0193,43.4278c-4.6802,-23.2357 -0.2458,-38.48322 -0.2458,-38.48322c0,0 -1.1863,9.28172 8.1389,24.24212c-0.1188,18.5464 3.5172,28.2209 3.5172,28.2209l0.7472,-0.552l-0.7472,0.6536c0,0 -5.5292,-4.5318 -11.4103,-14.0814z" fill="url(#paint0_linear)" id="svg_10"/>
  <path d="m40.0617,40.1381c2.237,2.2633 4.3241,3.8293 5.8326,4.574c-0.0089,-0.0045 -0.0178,-0.009 -0.0267,-0.0136c0,0 1.6936,0.61 1.9925,0.2034c2.0647,-2.1949 2.5693,-6.285 1.1933,-13.9724c-7.8708,-4.5126 -8.8643,-11.5474 -8.8643,-11.5474c0,0 -1.4177,9.7665 -0.1274,20.756z" fill="url(#paint1_linear)" id="svg_11"/>
  <path d="m17.7733,4.94458c0,0 -6.4756,22.26632 4.4831,53.98812c0.2988,0.915 0,1.9318 -0.797,2.5418l-11.55645,8.1338c-1.09587,0.8134 -2.68986,0.305 -3.18798,-1.0167c-3.08836,-8.4389 -11.55644,-36.3988 -2.98874,-67.00222c0.3985,-1.22007 1.69362,-1.93177 2.88911,-1.42341l11.15796,4.77861z" fill="url(#paint2_linear)" id="svg_12"/>
  <path d="m39.8901,49.6805l-10.4606,7.7271c0,0 -5.579,-14.8442 -2.6899,-43.0075c0.1993,-1.6267 1.8929,-2.4401 3.2876,-1.6267l10.1617,6.6087c0,0 -1.9925,13.7258 0.8966,26.9432c0.2989,1.3217 -0.1992,2.6435 -1.1954,3.3552z" fill="url(#paint3_linear)" id="svg_13"/>
  <path d="m59.2171,32.4978l-9.6636,-6.4053c-0.5977,-0.4067 -1.4943,0.2033 -1.2951,0.915c2.2914,10.2689 1.9925,15.3526 -0.3985,17.8944c-0.2989,0.4067 -1.9925,-0.2034 -1.9925,-0.2034c1.594,0.8134 1.9925,0.4067 1.9925,0.4067c1.594,-1.2201 7.5715,-5.592 11.3572,-8.2355c1.4944,-1.1184 1.4944,-3.3552 0,-4.3719z" fill="url(#paint4_linear)" id="svg_14"/>
 </g>
</svg>